# MagicaVoxel @ Ephtracy

# group
g Bottom

# material
mtllib Bottom.mtl
usemtl palette

# normals
vn -1 0 0
vn 1 0 0
vn 0 0 1
vn 0 0 -1
vn 0 -1 0
vn 0 1 0

# texcoords
vt 0.818359 0.5
vt 0.822266 0.5

# verts
v -10.5 5 3
v -10.5 5 -2
v -10.5 6 2
v -10.5 6 -1
v -10.5 8 3
v -10.5 8 2
v -10.5 8 -1
v -10.5 8 -2
v -9.5 0 7
v -9.5 0 -6
v -9.5 1 6
v -9.5 1 -5
v -9.5 7 6
v -9.5 7 3
v -9.5 7 2
v -9.5 7 -1
v -9.5 7 -2
v -9.5 7 -5
v -9.5 7 -6
v -9.5 7 -7
v -9.5 8 7
v -9.5 8 3
v -9.5 8 2
v -9.5 8 -1
v -9.5 8 -2
v -9.5 8 -7
v -8.5 0 -6
v -8.5 0 -7
v -8.5 1 6
v -8.5 1 -5
v -8.5 7 6
v -8.5 7 -5
v -8.5 7 -6
v -8.5 7 -7
v -4.5 1 -6
v -4.5 1 -7
v -4.5 7 -6
v -4.5 7 -7
v -2.5 6 -6
v -2.5 6 -7
v -2.5 7 -6
v -2.5 7 -7
v -1.5 5 -6
v -1.5 5 -7
v -1.5 6 -6
v -1.5 6 -7
v 0.5 6 -6
v 0.5 6 -7
v 0.5 7 -6
v 0.5 7 -7
v 1.5 7 -6
v 1.5 7 -7
v 1.5 8 -6
v 1.5 8 -7
v 3.5 1 -6
v 3.5 1 -7
v 3.5 7 -6
v 3.5 7 -7
v 7.5 1 5
v 7.5 1 -5
v 7.5 1 -6
v 7.5 1 -7
v 7.5 7 5
v 7.5 7 -5
v 7.5 7 -6
v 7.5 7 -7
v 7.5 8 5
v 7.5 8 -5
v 8.5 1 7
v 8.5 1 6
v 8.5 7 7
v 8.5 7 6
v 9.5 5 3
v 9.5 5 -2
v 9.5 6 2
v 9.5 6 -1
v 9.5 7 3
v 9.5 7 2
v 9.5 7 -1
v 9.5 7 -2
v -9.5 5 3
v -9.5 5 -2
v -9.5 6 2
v -9.5 6 -1
v -9.5 7 3
v -9.5 7 2
v -9.5 7 -1
v -9.5 7 -2
v -8.5 1 7
v -8.5 1 6
v -8.5 7 7
v -8.5 7 6
v -7.5 1 5
v -7.5 1 -5
v -7.5 1 -6
v -7.5 1 -7
v -7.5 7 5
v -7.5 7 -5
v -7.5 7 -6
v -7.5 7 -7
v -7.5 8 5
v -7.5 8 -5
v -3.5 1 -6
v -3.5 1 -7
v -3.5 7 -6
v -3.5 7 -7
v -1.5 7 -6
v -1.5 7 -7
v -1.5 8 -6
v -1.5 8 -7
v -0.5 6 -6
v -0.5 6 -7
v -0.5 7 -6
v -0.5 7 -7
v 1.5 5 -6
v 1.5 5 -7
v 1.5 6 -6
v 1.5 6 -7
v 2.5 6 -6
v 2.5 6 -7
v 2.5 7 -6
v 2.5 7 -7
v 4.5 1 -6
v 4.5 1 -7
v 4.5 7 -6
v 4.5 7 -7
v 8.5 0 -6
v 8.5 0 -7
v 8.5 1 6
v 8.5 1 -5
v 8.5 7 6
v 8.5 7 -5
v 8.5 7 -6
v 8.5 7 -7
v 9.5 0 7
v 9.5 0 -6
v 9.5 1 6
v 9.5 1 -5
v 9.5 7 6
v 9.5 7 3
v 9.5 7 2
v 9.5 7 -1
v 9.5 7 -2
v 9.5 7 -5
v 9.5 7 -6
v 9.5 7 -7
v 9.5 8 7
v 9.5 8 3
v 9.5 8 2
v 9.5 8 -1
v 9.5 8 -2
v 9.5 8 -7
v 10.5 5 3
v 10.5 5 -2
v 10.5 6 2
v 10.5 6 -1
v 10.5 8 3
v 10.5 8 2
v 10.5 8 -1
v 10.5 8 -2
v -9.5 0 7
v -9.5 8 7
v -8.5 1 7
v -8.5 7 7
v 8.5 1 7
v 8.5 7 7
v 9.5 0 7
v 9.5 8 7
v -8.5 1 6
v -8.5 7 6
v 8.5 1 6
v 8.5 7 6
v -10.5 5 3
v -10.5 8 3
v -9.5 5 3
v -9.5 7 3
v -9.5 8 3
v 9.5 5 3
v 9.5 7 3
v 9.5 8 3
v 10.5 5 3
v 10.5 8 3
v -10.5 6 -1
v -10.5 8 -1
v -9.5 6 -1
v -9.5 7 -1
v -9.5 8 -1
v 9.5 6 -1
v 9.5 7 -1
v 9.5 8 -1
v 10.5 6 -1
v 10.5 8 -1
v -9.5 1 -5
v -9.5 7 -5
v -8.5 1 -5
v -8.5 7 -5
v -7.5 1 -5
v -7.5 7 -5
v -7.5 8 -5
v 7.5 1 -5
v 7.5 7 -5
v 7.5 8 -5
v 8.5 1 -5
v 8.5 7 -5
v 9.5 1 -5
v 9.5 7 -5
v -9.5 1 6
v -9.5 7 6
v -8.5 1 6
v -8.5 7 6
v 8.5 1 6
v 8.5 7 6
v 9.5 1 6
v 9.5 7 6
v -7.5 1 5
v -7.5 7 5
v -7.5 8 5
v 7.5 1 5
v 7.5 7 5
v 7.5 8 5
v -10.5 6 2
v -10.5 8 2
v -9.5 6 2
v -9.5 7 2
v -9.5 8 2
v 9.5 6 2
v 9.5 7 2
v 9.5 8 2
v 10.5 6 2
v 10.5 8 2
v -10.5 5 -2
v -10.5 8 -2
v -9.5 5 -2
v -9.5 7 -2
v -9.5 8 -2
v 9.5 5 -2
v 9.5 7 -2
v 9.5 8 -2
v 10.5 5 -2
v 10.5 8 -2
v -9.5 0 -6
v -9.5 7 -6
v -8.5 0 -6
v -8.5 7 -6
v -7.5 1 -6
v -7.5 7 -6
v -4.5 1 -6
v -4.5 7 -6
v -3.5 1 -6
v -3.5 7 -6
v -2.5 6 -6
v -2.5 7 -6
v -1.5 5 -6
v -1.5 6 -6
v -1.5 7 -6
v -1.5 8 -6
v -0.5 6 -6
v -0.5 7 -6
v 0.5 6 -6
v 0.5 7 -6
v 1.5 5 -6
v 1.5 6 -6
v 1.5 7 -6
v 1.5 8 -6
v 2.5 6 -6
v 2.5 7 -6
v 3.5 1 -6
v 3.5 7 -6
v 4.5 1 -6
v 4.5 7 -6
v 7.5 1 -6
v 7.5 7 -6
v 8.5 0 -6
v 8.5 7 -6
v 9.5 0 -6
v 9.5 7 -6
v -9.5 7 -7
v -9.5 8 -7
v -8.5 0 -7
v -8.5 7 -7
v -7.5 1 -7
v -7.5 7 -7
v -4.5 1 -7
v -4.5 7 -7
v -3.5 1 -7
v -3.5 7 -7
v -2.5 6 -7
v -2.5 7 -7
v -1.5 5 -7
v -1.5 6 -7
v -1.5 7 -7
v -1.5 8 -7
v -0.5 6 -7
v -0.5 7 -7
v 0.5 6 -7
v 0.5 7 -7
v 1.5 5 -7
v 1.5 6 -7
v 1.5 7 -7
v 1.5 8 -7
v 2.5 6 -7
v 2.5 7 -7
v 3.5 1 -7
v 3.5 7 -7
v 4.5 1 -7
v 4.5 7 -7
v 7.5 1 -7
v 7.5 7 -7
v 8.5 0 -7
v 8.5 7 -7
v 9.5 7 -7
v 9.5 8 -7
v -9.5 0 7
v 9.5 0 7
v -8.5 0 6
v 8.5 0 6
v -9.5 0 -6
v -8.5 0 -6
v 8.5 0 -6
v 9.5 0 -6
v -8.5 0 -7
v 8.5 0 -7
v -10.5 5 3
v -9.5 5 3
v 9.5 5 3
v 10.5 5 3
v -10.5 5 -2
v -9.5 5 -2
v 9.5 5 -2
v 10.5 5 -2
v -1.5 5 -6
v 1.5 5 -6
v -1.5 5 -7
v 1.5 5 -7
v -2.5 6 -6
v -1.5 6 -6
v 1.5 6 -6
v 2.5 6 -6
v -2.5 6 -7
v -1.5 6 -7
v 1.5 6 -7
v 2.5 6 -7
v -8.5 7 7
v 8.5 7 7
v -9.5 7 6
v -8.5 7 6
v 8.5 7 6
v 9.5 7 6
v -9.5 7 3
v 9.5 7 3
v -9.5 7 2
v 9.5 7 2
v -9.5 7 -1
v 9.5 7 -1
v -9.5 7 -2
v 9.5 7 -2
v -9.5 7 -5
v -8.5 7 -5
v 8.5 7 -5
v 9.5 7 -5
v -9.5 7 -6
v -8.5 7 -6
v -7.5 7 -6
v -4.5 7 -6
v -3.5 7 -6
v -2.5 7 -6
v 2.5 7 -6
v 3.5 7 -6
v 4.5 7 -6
v 7.5 7 -6
v 8.5 7 -6
v 9.5 7 -6
v -9.5 7 -7
v -8.5 7 -7
v -7.5 7 -7
v -4.5 7 -7
v -3.5 7 -7
v -2.5 7 -7
v 2.5 7 -7
v 3.5 7 -7
v 4.5 7 -7
v 7.5 7 -7
v 8.5 7 -7
v 9.5 7 -7
v -8.5 1 7
v 8.5 1 7
v -9.5 1 6
v -8.5 1 6
v 8.5 1 6
v 9.5 1 6
v -7.5 1 5
v 7.5 1 5
v -9.5 1 -5
v -8.5 1 -5
v -7.5 1 -5
v 7.5 1 -5
v 8.5 1 -5
v 9.5 1 -5
v -7.5 1 -6
v -4.5 1 -6
v -3.5 1 -6
v 3.5 1 -6
v 4.5 1 -6
v 7.5 1 -6
v -7.5 1 -7
v -4.5 1 -7
v -3.5 1 -7
v 3.5 1 -7
v 4.5 1 -7
v 7.5 1 -7
v -10.5 6 2
v -9.5 6 2
v 9.5 6 2
v 10.5 6 2
v -10.5 6 -1
v -9.5 6 -1
v 9.5 6 -1
v 10.5 6 -1
v -0.5 6 -6
v 0.5 6 -6
v -0.5 6 -7
v 0.5 6 -7
v -1.5 7 -6
v -0.5 7 -6
v 0.5 7 -6
v 1.5 7 -6
v -1.5 7 -7
v -0.5 7 -7
v 0.5 7 -7
v 1.5 7 -7
v -9.5 8 7
v 9.5 8 7
v -7.5 8 5
v 7.5 8 5
v -10.5 8 3
v -9.5 8 3
v 9.5 8 3
v 10.5 8 3
v -10.5 8 2
v -9.5 8 2
v 9.5 8 2
v 10.5 8 2
v -10.5 8 -1
v -9.5 8 -1
v 9.5 8 -1
v 10.5 8 -1
v -10.5 8 -2
v -9.5 8 -2
v 9.5 8 -2
v 10.5 8 -2
v -7.5 8 -5
v 7.5 8 -5
v -1.5 8 -6
v 1.5 8 -6
v -9.5 8 -7
v -1.5 8 -7
v 1.5 8 -7
v 9.5 8 -7

# faces
f 3/2/1 2/2/1 1/2/1
f 4/2/1 2/2/1 3/2/1
f 5/2/1 3/2/1 1/2/1
f 6/2/1 3/2/1 5/2/1
f 7/2/1 2/2/1 4/2/1
f 8/2/1 2/2/1 7/2/1
f 11/2/1 10/2/1 9/2/1
f 12/2/1 10/2/1 11/2/1
f 13/2/1 11/2/1 9/2/1
f 18/2/1 10/2/1 12/2/1
f 19/2/1 10/2/1 18/2/1
f 21/2/1 13/2/1 9/2/1
f 21/2/1 14/2/1 13/2/1
f 22/2/1 14/2/1 21/2/1
f 23/2/1 16/2/1 15/2/1
f 24/2/1 16/2/1 23/2/1
f 25/2/1 20/2/1 19/2/1
f 25/2/1 19/2/1 18/2/1
f 25/2/1 18/2/1 17/2/1
f 26/2/1 20/2/1 25/2/1
f 31/1/1 30/1/1 29/1/1
f 32/1/1 30/1/1 31/1/1
f 33/2/1 28/2/1 27/2/1
f 34/2/1 28/2/1 33/2/1
f 37/2/1 36/2/1 35/2/1
f 38/2/1 36/2/1 37/2/1
f 41/2/1 40/2/1 39/2/1
f 42/2/1 40/2/1 41/2/1
f 45/2/1 44/2/1 43/2/1
f 46/2/1 44/2/1 45/2/1
f 49/2/1 48/2/1 47/2/1
f 50/2/1 48/2/1 49/2/1
f 53/2/1 52/2/1 51/2/1
f 54/2/1 52/2/1 53/2/1
f 57/2/1 56/2/1 55/2/1
f 58/2/1 56/2/1 57/2/1
f 63/1/1 60/1/1 59/1/1
f 64/1/1 60/1/1 63/1/1
f 65/2/1 62/2/1 61/2/1
f 66/2/1 62/2/1 65/2/1
f 67/2/1 64/2/1 63/2/1
f 68/2/1 64/2/1 67/2/1
f 71/2/1 70/2/1 69/2/1
f 72/2/1 70/2/1 71/2/1
f 75/2/1 74/2/1 73/2/1
f 76/2/1 74/2/1 75/2/1
f 77/2/1 75/2/1 73/2/1
f 78/2/1 75/2/1 77/2/1
f 79/2/1 74/2/1 76/2/1
f 80/2/1 74/2/1 79/2/1
f 81/2/2 82/2/2 83/2/2
f 83/2/2 82/2/2 84/2/2
f 81/2/2 83/2/2 85/2/2
f 85/2/2 83/2/2 86/2/2
f 84/2/2 82/2/2 87/2/2
f 87/2/2 82/2/2 88/2/2
f 89/2/2 90/2/2 91/2/2
f 91/2/2 90/2/2 92/2/2
f 93/1/2 94/1/2 97/1/2
f 97/1/2 94/1/2 98/1/2
f 95/2/2 96/2/2 99/2/2
f 99/2/2 96/2/2 100/2/2
f 97/2/2 98/2/2 101/2/2
f 101/2/2 98/2/2 102/2/2
f 103/2/2 104/2/2 105/2/2
f 105/2/2 104/2/2 106/2/2
f 107/2/2 108/2/2 109/2/2
f 109/2/2 108/2/2 110/2/2
f 111/2/2 112/2/2 113/2/2
f 113/2/2 112/2/2 114/2/2
f 115/2/2 116/2/2 117/2/2
f 117/2/2 116/2/2 118/2/2
f 119/2/2 120/2/2 121/2/2
f 121/2/2 120/2/2 122/2/2
f 123/2/2 124/2/2 125/2/2
f 125/2/2 124/2/2 126/2/2
f 129/1/2 130/1/2 131/1/2
f 131/1/2 130/1/2 132/1/2
f 127/2/2 128/2/2 133/2/2
f 133/2/2 128/2/2 134/2/2
f 135/2/2 136/2/2 137/2/2
f 137/2/2 136/2/2 138/2/2
f 135/2/2 137/2/2 139/2/2
f 138/2/2 136/2/2 144/2/2
f 144/2/2 136/2/2 145/2/2
f 135/2/2 139/2/2 147/2/2
f 139/2/2 140/2/2 147/2/2
f 147/2/2 140/2/2 148/2/2
f 141/2/2 142/2/2 149/2/2
f 149/2/2 142/2/2 150/2/2
f 145/2/2 146/2/2 151/2/2
f 144/2/2 145/2/2 151/2/2
f 143/2/2 144/2/2 151/2/2
f 151/2/2 146/2/2 152/2/2
f 153/2/2 154/2/2 155/2/2
f 155/2/2 154/2/2 156/2/2
f 153/2/2 155/2/2 157/2/2
f 157/2/2 155/2/2 158/2/2
f 156/2/2 154/2/2 159/2/2
f 159/2/2 154/2/2 160/2/2
f 163/2/3 162/2/3 161/2/3
f 164/2/3 162/2/3 163/2/3
f 165/2/3 163/2/3 161/2/3
f 166/2/3 162/2/3 164/2/3
f 167/2/3 165/2/3 161/2/3
f 167/2/3 166/2/3 165/2/3
f 168/2/3 162/2/3 166/2/3
f 168/2/3 166/2/3 167/2/3
f 171/1/3 170/1/3 169/1/3
f 172/1/3 170/1/3 171/1/3
f 175/2/3 174/2/3 173/2/3
f 176/2/3 174/2/3 175/2/3
f 177/2/3 174/2/3 176/2/3
f 181/2/3 179/2/3 178/2/3
f 181/2/3 180/2/3 179/2/3
f 182/2/3 180/2/3 181/2/3
f 185/2/3 184/2/3 183/2/3
f 186/2/3 184/2/3 185/2/3
f 187/2/3 184/2/3 186/2/3
f 191/2/3 189/2/3 188/2/3
f 191/2/3 190/2/3 189/2/3
f 192/2/3 190/2/3 191/2/3
f 195/2/3 194/2/3 193/2/3
f 196/2/3 194/2/3 195/2/3
f 200/1/3 198/1/3 197/1/3
f 201/2/3 199/2/3 198/2/3
f 201/1/3 198/1/3 200/1/3
f 202/2/3 199/2/3 201/2/3
f 205/2/3 204/2/3 203/2/3
f 206/2/3 204/2/3 205/2/3
f 207/2/4 208/2/4 209/2/4
f 209/2/4 208/2/4 210/2/4
f 211/2/4 212/2/4 213/2/4
f 213/2/4 212/2/4 214/2/4
f 215/1/4 216/1/4 218/1/4
f 216/2/4 217/2/4 219/2/4
f 218/1/4 216/1/4 219/1/4
f 219/2/4 217/2/4 220/2/4
f 221/2/4 222/2/4 223/2/4
f 223/2/4 222/2/4 224/2/4
f 224/2/4 222/2/4 225/2/4
f 226/2/4 227/2/4 229/2/4
f 227/2/4 228/2/4 229/2/4
f 229/2/4 228/2/4 230/2/4
f 231/2/4 232/2/4 233/2/4
f 233/2/4 232/2/4 234/2/4
f 234/2/4 232/2/4 235/2/4
f 236/2/4 237/2/4 239/2/4
f 237/2/4 238/2/4 239/2/4
f 239/2/4 238/2/4 240/2/4
f 241/2/4 242/2/4 243/2/4
f 243/2/4 242/2/4 244/2/4
f 245/1/4 246/1/4 247/1/4
f 247/1/4 246/1/4 248/1/4
f 249/1/4 250/1/4 251/1/4
f 251/1/4 250/1/4 252/1/4
f 249/1/4 251/1/4 253/1/4
f 253/1/4 251/1/4 254/1/4
f 255/2/4 256/2/4 258/2/4
f 257/1/4 258/1/4 259/1/4
f 258/2/4 256/2/4 260/2/4
f 259/1/4 258/1/4 260/1/4
f 249/1/4 253/1/4 261/1/4
f 260/2/4 256/2/4 263/2/4
f 263/2/4 256/2/4 264/2/4
f 261/1/4 262/1/4 265/1/4
f 249/1/4 261/1/4 267/1/4
f 265/1/4 266/1/4 267/1/4
f 261/1/4 265/1/4 267/1/4
f 267/1/4 266/1/4 268/1/4
f 269/1/4 270/1/4 271/1/4
f 271/1/4 270/1/4 272/1/4
f 273/2/4 274/2/4 275/2/4
f 275/2/4 274/2/4 276/2/4
f 277/2/4 278/2/4 280/2/4
f 279/2/4 280/2/4 281/2/4
f 280/2/4 278/2/4 282/2/4
f 281/2/4 280/2/4 282/2/4
f 279/2/4 281/2/4 283/2/4
f 282/2/4 278/2/4 284/2/4
f 279/2/4 283/2/4 285/2/4
f 283/2/4 284/2/4 285/2/4
f 284/2/4 278/2/4 286/2/4
f 285/2/4 284/2/4 286/2/4
f 286/2/4 278/2/4 288/2/4
f 287/2/4 288/2/4 290/2/4
f 288/2/4 278/2/4 291/2/4
f 290/2/4 288/2/4 291/2/4
f 291/2/4 278/2/4 292/2/4
f 289/2/4 290/2/4 293/2/4
f 290/2/4 291/2/4 293/2/4
f 293/2/4 291/2/4 294/2/4
f 289/2/4 293/2/4 295/2/4
f 289/2/4 295/2/4 297/2/4
f 295/2/4 296/2/4 297/2/4
f 297/2/4 296/2/4 298/2/4
f 298/2/4 296/2/4 299/2/4
f 298/2/4 299/2/4 301/2/4
f 299/2/4 300/2/4 301/2/4
f 301/2/4 300/2/4 302/2/4
f 279/2/4 285/2/4 303/2/4
f 302/2/4 300/2/4 304/2/4
f 279/2/4 303/2/4 305/2/4
f 303/2/4 304/2/4 305/2/4
f 304/2/4 300/2/4 306/2/4
f 305/2/4 304/2/4 306/2/4
f 279/2/4 305/2/4 307/2/4
f 306/2/4 300/2/4 308/2/4
f 279/2/4 307/2/4 309/2/4
f 307/2/4 308/2/4 309/2/4
f 308/2/4 300/2/4 310/2/4
f 309/2/4 308/2/4 310/2/4
f 310/2/4 300/2/4 311/2/4
f 311/2/4 300/2/4 312/2/4
f 315/2/5 314/2/5 313/2/5
f 316/2/5 314/2/5 315/2/5
f 317/2/5 315/2/5 313/2/5
f 318/1/5 316/1/5 315/1/5
f 318/2/5 315/2/5 317/2/5
f 319/2/5 314/2/5 316/2/5
f 319/1/5 316/1/5 318/1/5
f 320/2/5 314/2/5 319/2/5
f 321/2/5 319/2/5 318/2/5
f 322/2/5 319/2/5 321/2/5
f 327/2/5 324/2/5 323/2/5
f 328/2/5 324/2/5 327/2/5
f 329/2/5 326/2/5 325/2/5
f 330/2/5 326/2/5 329/2/5
f 333/2/5 332/2/5 331/2/5
f 334/2/5 332/2/5 333/2/5
f 339/2/5 336/2/5 335/2/5
f 340/2/5 336/2/5 339/2/5
f 341/2/5 338/2/5 337/2/5
f 342/2/5 338/2/5 341/2/5
f 346/2/5 344/2/5 343/2/5
f 347/2/5 344/2/5 346/2/5
f 349/2/5 346/2/5 345/2/5
f 350/2/5 348/2/5 347/2/5
f 351/2/5 346/2/5 349/2/5
f 352/2/5 350/2/5 347/2/5
f 353/2/5 346/2/5 351/2/5
f 354/2/5 352/2/5 347/2/5
f 355/2/5 346/2/5 353/2/5
f 356/2/5 354/2/5 347/2/5
f 357/2/5 346/2/5 355/2/5
f 358/2/5 346/2/5 357/2/5
f 359/2/5 356/2/5 347/2/5
f 360/2/5 356/2/5 359/2/5
f 373/2/5 362/2/5 361/2/5
f 374/2/5 362/2/5 373/2/5
f 375/2/5 364/2/5 363/2/5
f 376/2/5 364/2/5 375/2/5
f 377/2/5 366/2/5 365/2/5
f 378/2/5 366/2/5 377/2/5
f 379/2/5 368/2/5 367/2/5
f 380/2/5 368/2/5 379/2/5
f 381/2/5 370/2/5 369/2/5
f 382/2/5 370/2/5 381/2/5
f 383/2/5 372/2/5 371/2/5
f 384/2/5 372/2/5 383/2/5
f 385/2/6 386/2/6 388/2/6
f 388/2/6 386/2/6 389/2/6
f 387/2/6 388/2/6 393/2/6
f 393/2/6 388/2/6 394/2/6
f 391/1/6 392/1/6 395/1/6
f 395/1/6 392/1/6 396/1/6
f 389/2/6 390/2/6 397/2/6
f 397/2/6 390/2/6 398/2/6
f 399/2/6 400/2/6 405/2/6
f 405/2/6 400/2/6 406/2/6
f 401/2/6 402/2/6 407/2/6
f 407/2/6 402/2/6 408/2/6
f 403/2/6 404/2/6 409/2/6
f 409/2/6 404/2/6 410/2/6
f 411/2/6 412/2/6 415/2/6
f 415/2/6 412/2/6 416/2/6
f 413/2/6 414/2/6 417/2/6
f 417/2/6 414/2/6 418/2/6
f 419/2/6 420/2/6 421/2/6
f 421/2/6 420/2/6 422/2/6
f 423/2/6 424/2/6 427/2/6
f 427/2/6 424/2/6 428/2/6
f 425/2/6 426/2/6 429/2/6
f 429/2/6 426/2/6 430/2/6
f 431/2/6 432/2/6 433/2/6
f 433/2/6 432/2/6 434/2/6
f 431/2/6 433/2/6 436/2/6
f 434/2/6 432/2/6 437/2/6
f 435/2/6 436/2/6 439/2/6
f 436/2/6 433/2/6 440/2/6
f 439/2/6 436/2/6 440/2/6
f 437/2/6 438/2/6 441/2/6
f 434/2/6 437/2/6 441/2/6
f 441/2/6 438/2/6 442/2/6
f 440/2/6 433/2/6 444/2/6
f 434/2/6 441/2/6 445/2/6
f 443/2/6 444/2/6 447/2/6
f 444/2/6 433/2/6 448/2/6
f 447/2/6 444/2/6 448/2/6
f 445/2/6 446/2/6 449/2/6
f 434/2/6 445/2/6 449/2/6
f 449/2/6 446/2/6 450/2/6
f 448/2/6 433/2/6 451/2/6
f 434/2/6 449/2/6 452/2/6
f 451/2/6 452/2/6 453/2/6
f 453/2/6 452/2/6 454/2/6
f 448/2/6 451/2/6 455/2/6
f 451/2/6 453/2/6 455/2/6
f 455/2/6 453/2/6 456/2/6
f 454/2/6 452/2/6 457/2/6
f 452/2/6 449/2/6 458/2/6
f 457/2/6 452/2/6 458/2/6
